<?xml version="1.0" encoding="iso-8859-1"?>
<!-- Uploaded to: SVG Repo, www.svgrepo.com, Generator: SVG Repo Mixer Tools -->
<svg fill="#000000" height="800px" width="800px" version="1.1" id="Layer_1" xmlns="http://www.w3.org/2000/svg" xmlns:xlink="http://www.w3.org/1999/xlink" 
	 viewBox="0 0 511.999 511.999" xml:space="preserve">
<g>
	<g>
		<path d="M495.373,101.728H162.522c-11.617,0-19.654,11.648-15.532,22.507l65.242,171.947c2.448,6.453,8.631,10.72,15.532,10.72
			h202.367c6.901,0,13.085-4.267,15.532-10.72l65.242-171.947C515.027,113.373,506.987,101.728,495.373,101.728z"/>
	</g>
</g>
<g>
	<g>
		<path d="M452.876,329.764H199.281l-94.205-248.28c-3.673-9.679-12.946-16.079-23.3-16.079H24.92C11.158,65.404,0,76.562,0,90.324
			c0,13.763,11.158,24.92,24.92,24.92h39.659l94.205,248.279c3.673,9.679,12.946,16.079,23.3,16.079h18.06
			c-0.907,3.946-1.403,8.047-1.403,12.265c0,30.177,24.55,54.727,54.727,54.727c30.176,0,54.727-24.55,54.727-54.727
			c0-4.218-0.495-8.319-1.403-12.265h26.423c-0.907,3.946-1.403,8.047-1.403,12.265c0,30.177,24.55,54.727,54.727,54.727
			c30.176,0,54.727-24.55,54.727-54.727c0-4.218-0.495-8.319-1.403-12.265h13.017c13.762,0,24.92-11.158,24.92-24.92
			C477.797,340.92,466.64,329.764,452.876,329.764z M253.466,402.292c-5.747,0-10.424-4.676-10.424-10.424
			c0-5.748,4.676-10.424,10.424-10.424c5.748,0,10.424,4.676,10.424,10.424C263.891,397.616,259.215,402.292,253.466,402.292z
			 M386.537,402.292c-5.748,0-10.424-4.676-10.424-10.424c0-5.748,4.676-10.424,10.424-10.424c5.747,0,10.424,4.676,10.424,10.424
			C396.96,397.616,392.284,402.292,386.537,402.292z"/>
	</g>
</g>
</svg>